<?xml version="1.0" encoding="UTF-8" standalone="no"?>
<svg
   width="447.91916"
   height="449.02106"
   version="1.1"
   viewBox="0 0 447.91916 449.02105"
   id="svg63"
   sodipodi:docname="logo.svg"
   inkscape:version="1.4.2 (f4327f4, 2025-05-13)"
   xmlns:inkscape="http://www.inkscape.org/namespaces/inkscape"
   xmlns:sodipodi="http://sodipodi.sourceforge.net/DTD/sodipodi-0.dtd"
   xmlns="http://www.w3.org/2000/svg"
   xmlns:svg="http://www.w3.org/2000/svg"
   xmlns:rdf="http://www.w3.org/1999/02/22-rdf-syntax-ns#"
   xmlns:cc="http://creativecommons.org/ns#"
   xmlns:dc="http://purl.org/dc/elements/1.1/">
  <sodipodi:namedview
     id="namedview63"
     pagecolor="#ffffff"
     bordercolor="#000000"
     borderopacity="0.25"
     inkscape:showpageshadow="2"
     inkscape:pageopacity="0.0"
     inkscape:pagecheckerboard="0"
     inkscape:deskcolor="#d1d1d1"
     inkscape:zoom="1.2070175"
     inkscape:cx="477.2093"
     inkscape:cy="385.66134"
     inkscape:window-width="2880"
     inkscape:window-height="1595"
     inkscape:window-x="5753"
     inkscape:window-y="-7"
     inkscape:window-maximized="1"
     inkscape:current-layer="g61" />
  <title
     id="title1">Centennial Software Solutions ®</title>
  <defs
     id="defs31">
    <clipPath
       id="clipPath2">
      <path
         transform="translate(-359.6,-426)"
         d="M 0,1000 H 1000 V 0 H 0 Z"
         id="path1" />
    </clipPath>
    <clipPath
       id="clipPath4">
      <path
         transform="translate(-496.1,-499.8)"
         d="M 0,1000 H 1000 V 0 H 0 Z"
         id="path2" />
    </clipPath>
    <clipPath
       id="clipPath6">
      <path
         transform="translate(-554.5,-479)"
         d="M 0,1000 H 1000 V 0 H 0 Z"
         id="path3" />
    </clipPath>
    <clipPath
       id="clipPath8">
      <path
         transform="translate(-576.3,-518.9)"
         d="M 0,1000 H 1000 V 0 H 0 Z"
         id="path4" />
    </clipPath>
    <clipPath
       id="clipPath10">
      <path
         transform="translate(-612.4,-532.4)"
         d="M 0,1000 H 1000 V 0 H 0 Z"
         id="path5" />
    </clipPath>
    <clipPath
       id="clipPath12">
      <path
         transform="translate(-679.1,-473.6)"
         d="M 0,1000 H 1000 V 0 H 0 Z"
         id="path6" />
    </clipPath>
    <clipPath
       id="clipPath14">
      <path
         transform="translate(-734.6,-478.6)"
         d="M 0,1000 H 1000 V 0 H 0 Z"
         id="path7" />
    </clipPath>
    <clipPath
       id="clipPath16">
      <path
         transform="translate(-760.5,-506.2)"
         d="M 0,1000 H 1000 V 0 H 0 Z"
         id="path8" />
    </clipPath>
    <clipPath
       id="clipPath18">
      <path
         transform="translate(-789.4,-499.2)"
         d="M 0,1000 H 1000 V 0 H 0 Z"
         id="path9" />
    </clipPath>
    <clipPath
       id="clipPath20">
      <path
         transform="translate(-488.1,-635.8)"
         d="M 0,1000 H 1000 V 0 H 0 Z"
         id="path10" />
    </clipPath>
    <clipPath
       id="clipPath22">
      <path
         transform="translate(-536.6,-609.8)"
         d="M 0,1000 H 1000 V 0 H 0 Z"
         id="path11" />
    </clipPath>
    <clipPath
       id="clipPath24">
      <path
         transform="translate(-623.5,-620.9)"
         d="M 0,1000 H 1000 V 0 H 0 Z"
         id="path12" />
    </clipPath>
    <clipPath
       id="clipPath26">
      <path
         transform="translate(-651.3,-646)"
         d="M 0,1000 H 1000 V 0 H 0 Z"
         id="path13" />
    </clipPath>
    <clipPath
       id="clipPath28">
      <path
         transform="translate(-679.6,-609.8)"
         d="M 0,1000 H 1000 V 0 H 0 Z"
         id="path14" />
    </clipPath>
    <clipPath
       id="clipPath30">
      <path
         transform="translate(-766.5,-620.9)"
         d="M 0,1000 H 1000 V 0 H 0 Z"
         id="path15" />
    </clipPath>
    <clipPath
       id="clipPath32">
      <path
         transform="translate(-820.2,-620.9)"
         d="M 0,1000 H 1000 V 0 H 0 Z"
         id="path16" />
    </clipPath>
    <clipPath
       id="clipPath34">
      <path
         transform="translate(0,-2.5e-5)"
         d="M 0,1000 H 1000 V 0 H 0 Z"
         id="path17" />
    </clipPath>
    <clipPath
       id="clipPath36">
      <path
         transform="translate(-844.1,-645.3)"
         d="M 0,1000 H 1000 V 0 H 0 Z"
         id="path18" />
    </clipPath>
    <clipPath
       id="clipPath38">
      <path
         transform="translate(-884.7,-593.3)"
         d="M 0,1000 H 1000 V 0 H 0 Z"
         id="path19" />
    </clipPath>
    <clipPath
       id="clipPath40">
      <path
         transform="translate(-924.3,-588.4)"
         d="M 0,1000 H 1000 V 0 H 0 Z"
         id="path20" />
    </clipPath>
    <clipPath
       id="clipPath42">
      <path
         transform="translate(-496.1,-385.8)"
         d="M 0,1000 H 1000 V 0 H 0 Z"
         id="path21" />
    </clipPath>
    <clipPath
       id="clipPath44">
      <path
         transform="translate(-554.5,-365.1)"
         d="M 0,1000 H 1000 V 0 H 0 Z"
         id="path22" />
    </clipPath>
    <clipPath
       id="clipPath46">
      <path
         transform="translate(-580,-357.7)"
         d="M 0,1000 H 1000 V 0 H 0 Z"
         id="path23" />
    </clipPath>
    <clipPath
       id="clipPath48">
      <path
         transform="translate(-627.5,-380.3)"
         d="M 0,1000 H 1000 V 0 H 0 Z"
         id="path24" />
    </clipPath>
    <clipPath
       id="clipPath50">
      <path
         transform="translate(-655.7,-418.4)"
         d="M 0,1000 H 1000 V 0 H 0 Z"
         id="path25" />
    </clipPath>
    <clipPath
       id="clipPath52">
      <path
         transform="translate(-679.8,-419.3)"
         d="M 0,1000 H 1000 V 0 H 0 Z"
         id="path26" />
    </clipPath>
    <clipPath
       id="clipPath54">
      <path
         transform="translate(0,-2.5e-5)"
         d="M 0,1000 H 1000 V 0 H 0 Z"
         id="path27" />
    </clipPath>
    <clipPath
       id="clipPath56">
      <path
         transform="translate(-732.1,-365.1)"
         d="M 0,1000 H 1000 V 0 H 0 Z"
         id="path28" />
    </clipPath>
    <clipPath
       id="clipPath58">
      <path
         transform="translate(-785.7,-393)"
         d="M 0,1000 H 1000 V 0 H 0 Z"
         id="path29" />
    </clipPath>
    <clipPath
       id="clipPath60">
      <path
         transform="translate(-835.3,-372.3)"
         d="M 0,1000 H 1000 V 0 H 0 Z"
         id="path30" />
    </clipPath>
    <clipPath
       id="clipPath62">
      <path
         transform="translate(-309.2,-528.8)"
         d="M 0,1000 H 1000 V 0 H 0 Z"
         id="path31" />
    </clipPath>
  </defs>
  <g
     transform="translate(-96.807697,-442.1808)"
     id="g63">
    <path
       transform="matrix(1.333,0,0,-1.333,479.5,765.3)"
       d="m 0,0 -4.684,4.471 h -58.89 c -15.86,-12.59 -36.14,-19.87 -58.13,-19.14 -47.34,1.584 -85.48,40.96 -85.64,88.32 -0.169,49.12 39.6,88.99 88.68,88.99 20.83,0 39.98,-7.184 55.11,-19.2 h 58.85 l 4.703,4.489 22.79,22.79 -43.86,43.86 -26.52,-26.52 c -12.36,7.713 -25.7,13.22 -39.46,16.54 v 37.8 h -62.03 v -37.53 c -13.8,-3.193 -27.18,-8.586 -39.6,-16.18 l -26.73,26.73 -43.86,-43.86 26.52,-26.52 c -7.713,-12.36 -13.22,-25.7 -16.54,-39.46 h -37.8 V 42.37 h 37.8 c 3.315,-13.76 8.826,-27.1 16.54,-39.46 l -26.52,-26.52 43.86,-43.86 26.73,26.73 c 12.42,-7.596 25.81,-12.99 39.6,-16.18 v -37.53 h 62.03 v 37.8 c 13.76,3.315 27.1,8.826 39.46,16.54 l 26.52,-26.52 43.86,43.86 z"
       clip-path="url(#clipPath2)"
       fill="#ed502e"
       id="path32" />
    <g
       fill="#403f41"
       id="g61" />
    <path
       transform="matrix(1.333,0,0,-1.333,412.2,628.3)"
       d="m 0,0 h -71.34 c -15.88,0 -28.76,-12.88 -28.76,-28.76 0,-15.88 12.88,-28.76 28.76,-28.76 h 142 c 15.88,0 28.76,12.88 28.76,28.76 C 99.42,-12.88 86.54,0 70.66,0 Z"
       clip-path="url(#clipPath62)"
       fill="#ed502e"
       id="path62" />
    <text
       x="724.31989"
       y="227.36497"
       fill="#000000"
       font-family="Bahnschrift"
       font-size="80.48px"
       stroke-width="0.9449"
       style="font-variation-settings:'wght' 600"
       xml:space="preserve"
       id="text62"><tspan
         x="724.31989"
         y="227.36497"
         id="tspan62" /></text>
  </g>
  <metadata
     id="metadata63">
    <rdf:RDF>
      <cc:Work
         rdf:about="">
        <dc:title>Centennial Software Solutions ®</dc:title>
      </cc:Work>
    </rdf:RDF>
  </metadata>
</svg>
