<svg width="1140" height="483.6" version="1.1" viewBox="0 0 1140 483.6" xmlns="http://www.w3.org/2000/svg" xmlns:xlink="http://www.w3.org/1999/xlink">
 <title>Centennial Software Solutions ®</title>
 <defs>
  <clipPath id="clipPath2">
   <path transform="translate(-359.6 -426)" d="m0 1e3h1e3v-1e3h-1e3z"/>
  </clipPath>
  <clipPath id="clipPath4">
   <path transform="translate(-496.1 -499.8)" d="m0 1e3h1e3v-1e3h-1e3z"/>
  </clipPath>
  <clipPath id="clipPath6">
   <path transform="translate(-554.5 -479)" d="m0 1e3h1e3v-1e3h-1e3z"/>
  </clipPath>
  <clipPath id="clipPath8">
   <path transform="translate(-576.3 -518.9)" d="m0 1e3h1e3v-1e3h-1e3z"/>
  </clipPath>
  <clipPath id="clipPath10">
   <path transform="translate(-612.4 -532.4)" d="m0 1e3h1e3v-1e3h-1e3z"/>
  </clipPath>
  <clipPath id="clipPath12">
   <path transform="translate(-679.1 -473.6)" d="m0 1e3h1e3v-1e3h-1e3z"/>
  </clipPath>
  <clipPath id="clipPath14">
   <path transform="translate(-734.6 -478.6)" d="m0 1e3h1e3v-1e3h-1e3z"/>
  </clipPath>
  <clipPath id="clipPath16">
   <path transform="translate(-760.5 -506.2)" d="m0 1e3h1e3v-1e3h-1e3z"/>
  </clipPath>
  <clipPath id="clipPath18">
   <path transform="translate(-789.4 -499.2)" d="m0 1e3h1e3v-1e3h-1e3z"/>
  </clipPath>
  <clipPath id="clipPath20">
   <path transform="translate(-488.1 -635.8)" d="m0 1e3h1e3v-1e3h-1e3z"/>
  </clipPath>
  <clipPath id="clipPath22">
   <path transform="translate(-536.6 -609.8)" d="m0 1e3h1e3v-1e3h-1e3z"/>
  </clipPath>
  <clipPath id="clipPath24">
   <path transform="translate(-623.5 -620.9)" d="m0 1e3h1e3v-1e3h-1e3z"/>
  </clipPath>
  <clipPath id="clipPath26">
   <path transform="translate(-651.3 -646)" d="m0 1e3h1e3v-1e3h-1e3z"/>
  </clipPath>
  <clipPath id="clipPath28">
   <path transform="translate(-679.6 -609.8)" d="m0 1e3h1e3v-1e3h-1e3z"/>
  </clipPath>
  <clipPath id="clipPath30">
   <path transform="translate(-766.5 -620.9)" d="m0 1e3h1e3v-1e3h-1e3z"/>
  </clipPath>
  <clipPath id="clipPath32">
   <path transform="translate(-820.2 -620.9)" d="m0 1e3h1e3v-1e3h-1e3z"/>
  </clipPath>
  <clipPath id="clipPath34">
   <path transform="translate(0 -2.5e-5)" d="m0 1e3h1e3v-1e3h-1e3z"/>
  </clipPath>
  <clipPath id="clipPath36">
   <path transform="translate(-844.1 -645.3)" d="m0 1e3h1e3v-1e3h-1e3z"/>
  </clipPath>
  <clipPath id="clipPath38">
   <path transform="translate(-884.7 -593.3)" d="m0 1e3h1e3v-1e3h-1e3z"/>
  </clipPath>
  <clipPath id="clipPath40">
   <path transform="translate(-924.3 -588.4)" d="m0 1e3h1e3v-1e3h-1e3z"/>
  </clipPath>
  <clipPath id="clipPath42">
   <path transform="translate(-496.1 -385.8)" d="m0 1e3h1e3v-1e3h-1e3z"/>
  </clipPath>
  <clipPath id="clipPath44">
   <path transform="translate(-554.5 -365.1)" d="m0 1e3h1e3v-1e3h-1e3z"/>
  </clipPath>
  <clipPath id="clipPath46">
   <path transform="translate(-580 -357.7)" d="m0 1e3h1e3v-1e3h-1e3z"/>
  </clipPath>
  <clipPath id="clipPath48">
   <path transform="translate(-627.5 -380.3)" d="m0 1e3h1e3v-1e3h-1e3z"/>
  </clipPath>
  <clipPath id="clipPath50">
   <path transform="translate(-655.7 -418.4)" d="m0 1e3h1e3v-1e3h-1e3z"/>
  </clipPath>
  <clipPath id="clipPath52">
   <path transform="translate(-679.8 -419.3)" d="m0 1e3h1e3v-1e3h-1e3z"/>
  </clipPath>
  <clipPath id="clipPath54">
   <path transform="translate(0 -2.5e-5)" d="m0 1e3h1e3v-1e3h-1e3z"/>
  </clipPath>
  <clipPath id="clipPath56">
   <path transform="translate(-732.1 -365.1)" d="m0 1e3h1e3v-1e3h-1e3z"/>
  </clipPath>
  <clipPath id="clipPath58">
   <path transform="translate(-785.7 -393)" d="m0 1e3h1e3v-1e3h-1e3z"/>
  </clipPath>
  <clipPath id="clipPath60">
   <path transform="translate(-835.3 -372.3)" d="m0 1e3h1e3v-1e3h-1e3z"/>
  </clipPath>
  <clipPath id="clipPath62">
   <path transform="translate(-309.2 -528.8)" d="m0 1e3h1e3v-1e3h-1e3z"/>
  </clipPath>
 </defs>
 <g transform="translate(-96.7 -407.6)">
  <path transform="matrix(1.333 0 0 -1.333 479.5 765.3)" d="m0 0-4.684 4.471h-58.89c-15.86-12.59-36.14-19.87-58.13-19.14-47.34 1.584-85.48 40.96-85.64 88.32-0.169 49.12 39.6 88.99 88.68 88.99 20.83 0 39.98-7.184 55.11-19.2h58.85l4.703 4.489 22.79 22.79-43.86 43.86-26.52-26.52c-12.36 7.713-25.7 13.22-39.46 16.54v37.8h-62.03v-37.53c-13.8-3.193-27.18-8.586-39.6-16.18l-26.73 26.73-43.86-43.86 26.52-26.52c-7.713-12.36-13.22-25.7-16.54-39.46h-37.8v-63.21h37.8c3.315-13.76 8.826-27.1 16.54-39.46l-26.52-26.52 43.86-43.86 26.73 26.73c12.42-7.596 25.81-12.99 39.6-16.18v-37.53h62.03v37.8c13.76 3.315 27.1 8.826 39.46 16.54l26.52-26.52 43.86 43.86z" clip-path="url(#clipPath2)" fill="#ed502e"/>
  <g fill="#403f41">
   <path transform="matrix(1.333 0 0 -1.333 661.5 667)" d="m0 0c-3.066 1.15-7.047 2.256-11.94 3.317-4.069 0.885-7.283 1.739-9.641 2.565-2.359 0.825-4.334 2.048-5.926 3.671-1.592 1.621-2.388 3.817-2.388 6.589 0 3.596 1.459 6.471 4.378 8.624 2.919 2.152 6.707 3.228 11.37 3.228 9.67 0 15.36-4.393 17.07-13.18h5.838c-1.004 6.368-3.509 11.07-7.519 14.11-4.01 3.036-9.11 4.555-15.3 4.555-4.187 0-7.947-0.723-11.28-2.167-3.333-1.446-5.941-3.524-7.828-6.235-1.888-2.713-2.83-5.838-2.83-9.376 0-4.01 0.986-7.179 2.963-9.508 1.974-2.33 4.391-4.025 7.253-5.086 2.859-1.061 6.677-2.094 11.45-3.096 4.303-0.944 7.723-1.857 10.26-2.742 2.534-0.884 4.657-2.241 6.368-4.068 1.709-1.829 2.565-4.335 2.565-7.519 0-4.364-1.475-7.783-4.423-10.26-2.948-2.477-7.106-3.715-12.47-3.715-5.13 0-9.596 1.134-13.4 3.405-3.803 2.269-6.147 5.97-7.032 11.1h-6.19c1.06-6.721 3.979-11.73 8.756-15.04 4.775-3.303 10.58-4.953 17.42-4.953 7.488 0 13.27 1.783 17.34 5.351 4.069 3.567 6.103 8.359 6.103 14.37 0 4.422-1.062 7.916-3.184 10.48-2.123 2.565-4.718 4.422-7.784 5.572" clip-path="url(#clipPath4)"/>
   <path transform="matrix(1.333 0 0 -1.333 739.3 694.6)" d="m0 0c-1.534-3.066-3.657-5.483-6.368-7.252-2.713-1.769-5.72-2.654-9.022-2.654s-6.279 0.87-8.933 2.61c-2.654 1.738-4.747 4.157-6.28 7.252-1.534 3.095-2.3 6.559-2.3 10.39 0 3.714 0.753 7.089 2.256 10.13 1.504 3.036 3.596 5.409 6.28 7.12 2.682 1.71 5.675 2.565 8.977 2.565 3.361 0 6.383-0.87 9.067-2.609 2.682-1.74 4.789-4.113 6.323-7.12 1.533-3.008 2.3-6.369 2.3-10.08 0-3.834-0.767-7.283-2.3-10.35m-3.405 32.02c-3.569 2.18-7.562 3.272-11.98 3.272-4.422 0-8.402-1.092-11.94-3.272-3.538-2.183-6.311-5.161-8.315-8.934-2.004-3.774-3.006-8.02-3.006-12.74 0-4.836 1.002-9.185 3.006-13.05 2.004-3.863 4.777-6.885 8.315-9.067s7.518-3.272 11.94-3.272c4.481 0 8.505 1.106 12.07 3.317 3.567 2.211 6.353 5.247 8.359 9.11 2.004 3.861 3.007 8.182 3.007 12.96 0 4.716-1.017 8.962-3.051 12.74-2.034 3.773-4.836 6.751-8.403 8.934" clip-path="url(#clipPath6)"/>
   <path transform="matrix(1.333 0 0 -1.333 768.4 641.4)" d="m0 0v-5.484h-8.137v-5.13h8.137v-43.43h5.749v43.43h12.29v5.13h-12.29v6.104c0 2.947 0.648 4.966 1.945 6.058 1.297 1.09 3.214 1.636 5.75 1.636h4.599v5.13h-5.837c-8.138 0-12.21-4.481-12.21-13.44" clip-path="url(#clipPath8)"/>
   <path transform="matrix(1.333 0 0 -1.333 816.6 623.5)" d="m0 0h-5.749v-18.93h-7.872v-5.13h7.872v-31.22c0-4.659 0.854-7.858 2.565-9.597 1.709-1.74 4.48-2.609 8.314-2.609h6.191v5.13h-4.864c-1.947 0-3.376 0.295-4.29 0.885-0.915 0.588-1.503 1.428-1.769 2.521-0.265 1.09-0.398 2.697-0.398 4.82v30.07h11.41v5.13h-11.41z" clip-path="url(#clipPath10)"/>
   <path transform="matrix(1.333 0 0 -1.333 905.4 701.9)" d="m0 0-13.62 39.89h-5.307l-13.62-39.8-10.88 39.8h-6.015l13.98-48.56h5.307l13.98 40.95 13.71-40.95h5.396l14.06 48.56h-6.015z" clip-path="url(#clipPath12)"/>
   <path transform="matrix(1.333 0 0 -1.333 979.5 695.3)" d="m0 0c-1.446-3.332-3.877-5.824-7.297-7.474-2.595-1.298-5.366-1.946-8.314-1.946-3.008 0-5.483 0.766-7.43 2.3-1.946 1.532-2.919 3.656-2.919 6.368 0 2.476 0.914 4.48 2.742 6.015 1.651 1.356 4.363 2.446 8.138 3.272l17.25 3.627c0-4.777-0.723-8.832-2.167-12.16m-10.92 35.78c-4.836 0-9.038-1.342-12.6-4.024-3.568-2.684-5.705-6.355-6.412-11.01h5.748c0.589 2.948 2.108 5.336 4.556 7.164 2.446 1.828 5.32 2.743 8.623 2.743 4.48 0 7.784-1.181 9.906-3.539 2.004-2.242 3.097-5.602 3.273-10.08l-17.34-3.449c-2.299-0.473-4.378-1.017-6.236-1.637-1.857-0.619-3.553-1.459-5.086-2.52-3.479-2.477-5.217-5.868-5.217-10.17 0-4.365 1.532-7.754 4.599-10.17 3.065-2.419 7.045-3.627 11.94-3.627 3.833 0 7.37 0.973 10.61 2.919 2.889 1.71 5.13 4.068 6.722 7.076v-9.11h5.749v29.01c0 6.779-1.651 11.91-4.953 15.39-3.184 3.362-7.813 5.042-13.89 5.042" clip-path="url(#clipPath14)"/>
   <path transform="matrix(1.333 0 0 -1.333 1014 658.4)" d="m0 0v7.252h-5.749v-48.56h5.749v23.7c0 3.714 0.309 6.839 0.929 9.375 0.619 2.535 1.636 4.688 3.051 6.457 2.241 2.831 5.69 4.246 10.35 4.246h2.211v5.66h-1.592c-6.782 0-11.76-2.713-14.95-8.137" clip-path="url(#clipPath16)"/>
   <path transform="matrix(1.333 0 0 -1.333 1052 667.7)" d="m0 0c1.356 3.184 3.375 5.646 6.059 7.386 2.682 1.738 5.793 2.609 9.331 2.609s6.707-0.915 9.508-2.742c2.8-1.829 4.909-4.364 6.324-7.606 0.648-1.535 1.179-3.539 1.592-6.015h-34.58c0.294 2.358 0.885 4.48 1.769 6.368m25.3-26.98c-2.772-2.064-6.074-3.095-9.906-3.095-3.714 0-6.987 1.09-9.818 3.272-2.83 2.181-4.924 5.188-6.279 9.022-0.768 2.181-1.239 4.423-1.415 6.722h40.51c0 1.356-0.031 2.358-0.089 3.007-0.413 4.541-1.592 8.549-3.537 12.03-1.947 3.479-4.586 6.206-7.917 8.182-3.332 1.975-7.179 2.963-11.54 2.963-4.6 0-8.654-1.15-12.16-3.449-3.509-2.3-6.206-5.367-8.093-9.199-1.888-3.834-2.83-8.02-2.83-12.56 0-4.718 0.986-8.993 2.963-12.82 1.974-3.835 4.731-6.841 8.27-9.023 3.538-2.182 7.517-3.272 11.94-3.272 5.602 0 10.29 1.503 14.06 4.511 3.773 3.007 6.397 6.899 7.872 11.68h-6.103c-1.18-3.244-3.155-5.897-5.926-7.961" clip-path="url(#clipPath18)"/>
   <path transform="matrix(1.333 0 0 -1.333 650.8 485.6)" d="m0 0c4.069 0 7.459-0.944 10.17-2.831 2.711-1.887 4.363-4.599 4.953-8.137h13.89c-0.944 6.78-3.922 12.21-8.933 16.28-5.013 4.069-11.59 6.102-19.72 6.102-7.195 0-13.24-1.578-18.13-4.731-4.895-3.155-8.551-7.372-10.97-12.65-2.418-5.278-3.626-11.13-3.626-17.56 0-6.427 1.208-12.29 3.626-17.6 2.417-5.306 6.073-9.538 10.97-12.69 4.894-3.155 10.94-4.732 18.13-4.732 8.196 0 14.78 2.079 19.77 6.235 4.983 4.157 7.945 9.803 8.889 16.94h-13.89c-0.65-3.892-2.3-6.826-4.953-8.801-2.653-1.977-6.045-2.963-10.17-2.963-6.074 0-10.78 2.137-14.11 6.412-3.332 4.275-4.998 10.01-4.998 17.2 0 7.135 1.666 12.84 4.998 17.12 3.331 4.275 8.033 6.413 14.11 6.413" clip-path="url(#clipPath20)"/>
   <path transform="matrix(1.333 0 0 -1.333 715.5 520.3)" d="m0 0c0.235 1.768 0.884 3.301 1.946 4.599 1.119 1.769 2.578 3.095 4.378 3.98 1.798 0.885 3.817 1.327 6.058 1.327s4.275-0.457 6.104-1.371c1.826-0.915 3.301-2.226 4.422-3.936 1.002-1.18 1.621-2.713 1.857-4.599zm24.41 16.58c-3.774 1.857-7.902 2.786-12.38 2.786-5.426 0-10.01-1.238-13.75-3.715-3.745-2.476-6.545-5.705-8.403-9.685-1.857-3.98-2.786-8.241-2.786-12.78 0-4.895 1.047-9.273 3.14-13.14s5.056-6.885 8.889-9.065c3.833-2.182 8.255-3.273 13.27-3.273 6.25 0 11.38 1.636 15.39 4.909 4.008 3.272 6.81 7.531 8.403 12.78h-12.21c-0.826-2.182-2.211-3.966-4.157-5.352s-4.275-2.078-6.987-2.078c-2.536 0-4.791 0.633-6.766 1.902-1.977 1.267-3.553 3.051-4.733 5.351-1.061 1.826-1.68 3.772-1.857 5.837h37.5v2.565c0 5.719-1.15 10.51-3.45 14.37-2.299 3.862-5.337 6.722-9.11 8.58" clip-path="url(#clipPath22)"/>
   <path transform="matrix(1.333 0 0 -1.333 831.3 505.5)" d="m0 0c-2.653 5.541-7.814 8.314-15.48 8.314-2.772 0-5.249-0.561-7.43-1.68-2.182-1.122-4.216-3.008-6.103-5.661v6.279h-11.94v-49.62h11.94v25.3c0 3.242 0.235 5.852 0.708 7.828 0.471 1.975 1.208 3.552 2.211 4.732 1.65 2.004 4.157 3.007 7.518 3.007 2.771 0 4.865-0.738 6.28-2.211 1.65-1.829 2.476-5.13 2.476-9.906v-28.75h11.85v28.57c0 3.242-0.119 5.866-0.354 7.872-0.236 2.004-0.796 3.979-1.681 5.926" clip-path="url(#clipPath24)"/>
   <path transform="matrix(1.333 0 0 -1.333 868.4 472)" d="m0 0h-11.94v-17.87h-7.341v-9.553h7.341v-29.19c0-7.254 3.861-10.88 11.59-10.88h9.817v9.907h-5.395c-1.711 0-2.817 0.382-3.317 1.149-0.502 0.766-0.752 1.915-0.752 3.45v25.56h9.552v9.553h-9.552z" clip-path="url(#clipPath26)"/>
   <path transform="matrix(1.333 0 0 -1.333 906.1 520.3)" d="m0 0c0.235 1.768 0.884 3.301 1.946 4.599 1.119 1.769 2.578 3.095 4.378 3.98 1.798 0.885 3.817 1.327 6.058 1.327 2.24 0 4.275-0.457 6.104-1.371 1.826-0.915 3.301-2.226 4.422-3.936 1.002-1.18 1.621-2.713 1.857-4.599zm24.41 16.58c-3.774 1.857-7.902 2.786-12.38 2.786-5.426 0-10.01-1.238-13.75-3.715-3.745-2.476-6.545-5.705-8.403-9.685-1.857-3.98-2.786-8.241-2.786-12.78 0-4.895 1.047-9.273 3.14-13.14s5.056-6.885 8.889-9.065c3.833-2.182 8.255-3.273 13.27-3.273 6.25 0 11.38 1.636 15.39 4.909 4.008 3.272 6.81 7.531 8.403 12.78h-12.21c-0.826-2.182-2.211-3.966-4.157-5.352s-4.275-2.078-6.987-2.078c-2.536 0-4.791 0.633-6.766 1.902-1.977 1.267-3.553 3.051-4.733 5.351-1.061 1.826-1.68 3.772-1.857 5.837h37.5v2.565c0 5.719-1.15 10.51-3.45 14.37-2.299 3.862-5.337 6.722-9.11 8.58" clip-path="url(#clipPath28)"/>
   <path transform="matrix(1.333 0 0 -1.333 1022 505.5)" d="m0 0c-2.653 5.541-7.814 8.314-15.48 8.314-2.772 0-5.249-0.561-7.43-1.68-2.182-1.122-4.216-3.008-6.103-5.661v6.279h-11.94v-49.62h11.94v25.3c0 3.242 0.235 5.852 0.708 7.828 0.471 1.975 1.208 3.552 2.211 4.732 1.65 2.004 4.157 3.007 7.518 3.007 2.771 0 4.865-0.738 6.28-2.211 1.65-1.829 2.476-5.13 2.476-9.906v-28.75h11.85v28.57c0 3.242-0.119 5.866-0.354 7.872-0.236 2.004-0.796 3.979-1.681 5.926" clip-path="url(#clipPath30)"/>
   <path transform="matrix(1.333 0 0 -1.333 1094 505.5)" d="m0 0c-2.653 5.541-7.814 8.314-15.48 8.314-2.772 0-5.249-0.561-7.43-1.68-2.182-1.122-4.216-3.008-6.103-5.661v6.279h-11.94v-49.62h11.94v25.3c0 3.242 0.235 5.852 0.708 7.828 0.471 1.975 1.208 3.552 2.211 4.732 1.65 2.004 4.157 3.007 7.518 3.007 2.771 0 4.865-0.738 6.28-2.211 1.65-1.829 2.476-5.13 2.476-9.906v-28.75h11.85v28.57c0 3.242-0.118 5.866-0.353 7.872-0.236 2.004-0.796 3.979-1.681 5.926" clip-path="url(#clipPath32)"/>
   <path transform="matrix(1.333 0 0 -1.333 0 1333)" d="m832.9 578.5h11.94v49.62h-11.94z" clip-path="url(#clipPath34)"/>
   <path transform="matrix(1.333 0 0 -1.333 1126 473)" d="m0 0c-1.446 1.296-3.17 1.946-5.174 1.946-2.065 0-3.803-0.65-5.219-1.946-1.414-1.297-2.123-2.919-2.123-4.865 0-2.064 0.709-3.714 2.123-4.953 1.416-1.238 3.154-1.857 5.219-1.857 2.063 0 3.803 0.633 5.218 1.901 1.416 1.268 2.123 2.904 2.123 4.909 0 1.946-0.723 3.568-2.167 4.865" clip-path="url(#clipPath36)"/>
   <path transform="matrix(1.333 0 0 -1.333 1180 542.3)" d="m0 0c-0.944-2.065-2.653-3.715-5.13-4.953-1.888-0.944-4.011-1.415-6.368-1.415-2.182 0-3.937 0.486-5.263 1.459-1.327 0.973-1.99 2.373-1.99 4.202 0 1.532 0.531 2.829 1.592 3.891 1.415 1.297 3.715 2.24 6.899 2.83l11.85 2.389c-0.119-3.538-0.65-6.339-1.592-8.403m11.41 25.3c-0.827 2.123-2.153 3.981-3.98 5.572-1.829 1.651-4.04 2.904-6.634 3.759-2.595 0.854-5.395 1.283-8.403 1.283-5.306 0-9.965-1.445-13.97-4.334-4.011-2.89-6.428-7.076-7.253-12.56h11.85c0.412 2.3 1.489 4.127 3.229 5.484 1.738 1.356 3.759 2.034 6.058 2.034 2.948 0 5.159-0.796 6.633-2.387 1.474-1.593 2.27-3.923 2.389-6.988l-14.77-2.742c-5.013-0.944-8.875-2.359-11.59-4.246-3.774-2.595-5.661-6.368-5.661-11.32 0-4.599 1.504-8.182 4.512-10.75 3.006-2.566 6.927-3.848 11.76-3.848 4.717 0 8.46 0.915 11.23 2.742 1.769 1.119 3.273 2.771 4.511 4.953v-6.722h11.94v25.83c0 3.124-0.103 5.749-0.309 7.872-0.207 2.122-0.723 4.246-1.548 6.368" clip-path="url(#clipPath38)"/>
   <path transform="matrix(1.333 0 0 -1.333 1232 548.8)" d="m0 0c-1.475 0-2.521 0.338-3.14 1.017-0.62 0.677-0.929 1.842-0.929 3.493v53.07h-11.94v-56.61c0-3.775 0.973-6.532 2.918-8.27 1.946-1.74 4.805-2.609 8.58-2.609h7.695v9.906z" clip-path="url(#clipPath40)"/>
   <path transform="matrix(1.333 0 0 -1.333 661.5 818.9)" d="m0 0c-3.066 1.15-7.047 2.256-11.94 3.317-4.069 0.885-7.283 1.739-9.641 2.565-2.359 0.825-4.334 2.048-5.926 3.671-1.592 1.621-2.388 3.817-2.388 6.589 0 3.596 1.459 6.471 4.378 8.624 2.919 2.152 6.707 3.228 11.37 3.228 9.67 0 15.36-4.393 17.07-13.18h5.838c-1.004 6.368-3.509 11.07-7.519 14.11-4.01 3.036-9.11 4.555-15.3 4.555-4.187 0-7.947-0.723-11.28-2.167-3.333-1.446-5.941-3.524-7.828-6.235-1.888-2.713-2.83-5.838-2.83-9.376 0-4.01 0.986-7.179 2.963-9.508 1.974-2.33 4.391-4.025 7.253-5.086 2.859-1.061 6.677-2.094 11.45-3.096 4.303-0.944 7.723-1.857 10.26-2.742 2.534-0.884 4.657-2.241 6.368-4.068 1.709-1.829 2.565-4.335 2.565-7.519 0-4.364-1.475-7.783-4.423-10.26-2.948-2.477-7.106-3.715-12.47-3.715-5.13 0-9.596 1.134-13.4 3.405-3.803 2.269-6.147 5.97-7.032 11.1h-6.19c1.06-6.721 3.979-11.73 8.756-15.04 4.775-3.303 10.58-4.953 17.42-4.953 7.488 0 13.27 1.783 17.34 5.351 4.069 3.567 6.103 8.359 6.103 14.37 0 4.422-1.062 7.916-3.184 10.48-2.123 2.565-4.718 4.422-7.784 5.572" clip-path="url(#clipPath42)"/>
   <path transform="matrix(1.333 0 0 -1.333 739.3 846.5)" d="m0 0c-1.534-3.066-3.657-5.483-6.368-7.252-2.713-1.769-5.72-2.654-9.022-2.654s-6.279 0.87-8.933 2.61c-2.654 1.738-4.747 4.157-6.28 7.252-1.534 3.095-2.3 6.559-2.3 10.39 0 3.714 0.753 7.089 2.256 10.13 1.504 3.036 3.596 5.409 6.28 7.12 2.682 1.71 5.675 2.565 8.977 2.565 3.361 0 6.383-0.87 9.067-2.609 2.682-1.74 4.789-4.113 6.323-7.12 1.533-3.008 2.3-6.369 2.3-10.08 0-3.834-0.767-7.283-2.3-10.35m-3.405 32.02c-3.569 2.18-7.562 3.272-11.98 3.272-4.422 0-8.402-1.092-11.94-3.272-3.538-2.183-6.311-5.161-8.315-8.934-2.004-3.774-3.006-8.02-3.006-12.74 0-4.836 1.002-9.185 3.006-13.05 2.004-3.863 4.777-6.885 8.315-9.066 3.538-2.183 7.518-3.273 11.94-3.273 4.481 0 8.505 1.106 12.07 3.317 3.567 2.211 6.353 5.247 8.359 9.11 2.004 3.861 3.007 8.182 3.007 12.96 0 4.716-1.017 8.962-3.051 12.74-2.034 3.773-4.836 6.751-8.403 8.934" clip-path="url(#clipPath44)"/>
   <path transform="matrix(1.333 0 0 -1.333 773.3 856.5)" d="m0 0c-0.678 1.061-1.017 2.888-1.017 5.483v55.28h-5.749v-56.16c0-4.246 0.81-7.195 2.432-8.845 1.621-1.651 4.171-2.476 7.651-2.476h4.422v5.13h-3.184c-2.359 0-3.877 0.53-4.555 1.592" clip-path="url(#clipPath46)"/>
   <path transform="matrix(1.333 0 0 -1.333 836.6 826.3)" d="m0 0c0-5.248-0.442-9.582-1.327-13-0.884-3.42-2.241-6.132-4.068-8.136-1.181-1.298-2.566-2.287-4.157-2.964-1.593-0.678-3.303-1.017-5.13-1.017-4.011 0-6.959 1.504-8.845 4.511-1.415 2.3-2.123 5.542-2.123 9.729v30.07h-5.749v-29.81c0-5.366 0.796-9.436 2.388-12.21 1.356-2.358 3.169-4.186 5.44-5.483 2.269-1.296 4.82-1.946 7.65-1.946 3.479 0 6.516 0.738 9.111 2.212 2.593 1.473 4.864 3.743 6.81 6.81v-8.137h5.749v48.56h-5.749z" clip-path="url(#clipPath48)"/>
   <path transform="matrix(1.333 0 0 -1.333 874.3 775.4)" d="m0 0h-5.749v-18.93h-7.872v-5.13h7.872v-31.22c0-4.659 0.854-7.858 2.565-9.596 1.709-1.741 4.48-2.61 8.314-2.61h6.191v5.13h-4.864c-1.947 0-3.377 0.295-4.29 0.885-0.915 0.588-1.503 1.428-1.769 2.521-0.265 1.09-0.398 2.697-0.398 4.82v30.07h11.41v5.13h-11.41z" clip-path="url(#clipPath50)"/>
   <path transform="matrix(1.333 0 0 -1.333 906.4 774.3)" d="m0 0c-1.18 0-2.197-0.414-3.051-1.238-0.855-0.827-1.283-1.829-1.283-3.008 0-1.18 0.428-2.197 1.283-3.051 0.854-0.856 1.871-1.282 3.051-1.282 1.179 0 2.196 0.426 3.051 1.282 0.855 0.854 1.283 1.871 1.283 3.051 0 1.179-0.428 2.181-1.283 3.008-0.855 0.824-1.872 1.238-3.051 1.238" clip-path="url(#clipPath52)"/>
   <path transform="matrix(1.333 0 0 -1.333 0 1333)" d="m676.9 350.9h5.749v48.56h-5.749z" clip-path="url(#clipPath54)"/>
   <path transform="matrix(1.333 0 0 -1.333 976.1 846.5)" d="m0 0c-1.534-3.066-3.657-5.483-6.368-7.252-2.713-1.769-5.72-2.654-9.022-2.654s-6.279 0.87-8.933 2.61c-2.654 1.738-4.747 4.157-6.28 7.252-1.534 3.095-2.3 6.559-2.3 10.39 0 3.714 0.752 7.089 2.256 10.13 1.504 3.036 3.596 5.409 6.28 7.12 2.682 1.71 5.675 2.565 8.977 2.565 3.361 0 6.383-0.87 9.067-2.609 2.682-1.74 4.789-4.113 6.323-7.12 1.533-3.008 2.3-6.369 2.3-10.08 0-3.834-0.767-7.283-2.3-10.35m-3.405 32.02c-3.569 2.18-7.562 3.272-11.98 3.272-4.422 0-8.402-1.092-11.94-3.272-3.538-2.183-6.311-5.161-8.315-8.934-2.004-3.774-3.006-8.02-3.006-12.74 0-4.836 1.002-9.185 3.006-13.05 2.004-3.863 4.777-6.885 8.315-9.066 3.538-2.183 7.518-3.273 11.94-3.273 4.481 0 8.505 1.106 12.07 3.317 3.567 2.211 6.353 5.247 8.359 9.11 2.004 3.861 3.007 8.182 3.007 12.96 0 4.716-1.017 8.962-3.051 12.74-2.035 3.773-4.836 6.751-8.403 8.934" clip-path="url(#clipPath56)"/>
   <path transform="matrix(1.333 0 0 -1.333 1048 809.4)" d="m0 0c-1.298 2.3-3.066 4.113-5.307 5.439-2.241 1.327-4.836 1.991-7.784 1.991-3.42 0-6.442-0.723-9.065-2.167-2.625-1.446-4.909-3.73-6.855-6.855v8.137h-5.75v-48.56h5.75v19.19c0 5.425 0.456 9.803 1.371 13.14 0.913 3.331 2.255 5.999 4.024 8.005 2.477 2.653 5.572 3.98 9.287 3.98 4.069 0 7.017-1.504 8.845-4.511 1.416-2.3 2.123-5.543 2.123-9.729v-30.07h5.749v29.81c0 2.417-0.133 4.599-0.398 6.545-0.266 1.946-0.928 3.833-1.99 5.661" clip-path="url(#clipPath58)"/>
   <path transform="matrix(1.333 0 0 -1.333 1114 837)" d="m0 0c-1.711 1.887-3.775 3.242-6.192 4.069-2.418 0.825-5.602 1.65-9.552 2.477-3.126 0.588-5.588 1.163-7.385 1.724-1.8 0.56-3.303 1.4-4.511 2.521-1.209 1.119-1.813 2.594-1.813 4.422 0 2.418 1.017 4.319 3.051 5.706 2.035 1.384 4.85 2.078 8.447 2.078 3.655 0 6.634-0.856 8.933-2.565 2.3-1.711 3.715-4.157 4.245-7.341h5.75c-0.767 4.599-2.817 8.254-6.147 10.97-3.332 2.711-7.593 4.069-12.78 4.069-5.072 0-9.214-1.194-12.43-3.582-3.215-2.388-4.821-5.705-4.821-9.951 0-2.949 0.797-5.278 2.389-6.987 1.592-1.711 3.537-2.95 5.837-3.715 2.3-0.767 5.307-1.534 9.022-2.3 3.302-0.649 5.926-1.283 7.872-1.901 1.946-0.619 3.582-1.564 4.909-2.83 1.326-1.269 1.99-2.994 1.99-5.175 0-2.772-1.106-4.924-3.317-6.457-2.211-1.534-5.233-2.299-9.066-2.299-4.718 0-8.389 0.973-11.01 2.919-2.625 1.945-4.173 4.657-4.644 8.137h-5.838c0.648-5.072 2.815-9.037 6.501-11.9 3.684-2.862 8.594-4.29 14.73-4.29 5.839 0 10.36 1.296 13.58 3.892 3.213 2.593 4.82 6.102 4.82 10.52 0 3.302-0.856 5.895-2.565 7.783" clip-path="url(#clipPath60)"/>
  </g>
  <path transform="matrix(1.333 0 0 -1.333 412.2 628.3)" d="m0 0h-71.34c-15.88 0-28.76-12.88-28.76-28.76s12.88-28.76 28.76-28.76h142c15.88 0 28.76 12.88 28.76 28.76s-12.88 28.76-28.76 28.76z" clip-path="url(#clipPath62)" fill="#ed502e"/>
  <text x="724.31989" y="227.36497" fill="#000000" font-family="Bahnschrift" font-size="80.48px" stroke-width=".9449" style="font-variation-settings:'wght' 600" xml:space="preserve"><tspan x="724.31989" y="227.36497"/></text>
  <text x="504.30261" y="476.43039" fill="#ed502e" font-family="Bahnschrift" font-size="94.51px" stroke-width="1.11" style="font-variation-settings:'wght' 600" xml:space="preserve"><tspan x="504.30261" y="476.43039" fill="#ed502e" font-family="Arial" font-size="94.51px" stroke-width="1.11" style="font-variant-caps:normal;font-variant-east-asian:normal;font-variant-ligatures:normal;font-variant-numeric:normal;font-variation-settings:'wght' 600">®</tspan></text>
 </g>
</svg>
